<svg width="515" height="319" viewBox="0 0 515 319" fill="none" xmlns="http://www.w3.org/2000/svg">
<g id="guiBounds" clip-path="url(#clip0_3_2)">
<path id="background" d="M515 0H0V319H515V0Z" fill="#DA8497"/>
<path id="SuperConductor" d="M368.029 44.9794C366.996 44.9404 365.982 45.1743 364.988 45.3692C363.994 45.5641 363.02 45.7785 362.045 45.9149C361.46 46.0123 360.876 45.9928 360.291 46.0123C359.511 46.0513 358.771 45.8369 358.05 45.603C357.348 45.3497 356.724 44.9794 356.179 44.5311C355.73 44.1608 355.36 43.6735 355.107 43.1473C354.756 42.4067 354.795 41.6856 355.165 40.9449C355.555 40.1653 356.062 39.4637 356.568 38.7815C356.997 38.1968 357.407 37.6121 357.894 37.0664C358.751 36.1309 359.745 35.3513 360.739 34.5912C362.045 33.6167 363.448 32.7786 364.871 31.999C365.378 31.7067 365.943 31.5508 366.508 31.3559C366.84 31.2389 367.21 31.1415 367.58 31.044C367.736 31.005 367.892 30.9855 368.048 31.005C369.256 31.0635 370.406 31.3364 371.478 31.9016C372.316 32.3304 372.804 33.0515 373.115 33.909C373.291 34.3768 373.213 34.8446 372.999 35.3123C372.609 36.1309 371.966 36.6961 371.283 37.2223C370.816 37.5927 370.328 37.963 369.822 38.3138C369.451 38.5866 369.023 38.7621 368.555 38.84C368.204 38.918 367.873 38.9764 367.522 39.0154C366.489 39.1908 365.651 38.84 364.969 38.0604C364.832 37.9045 364.696 37.7486 364.559 37.5927C364.481 37.4757 364.442 37.3393 364.52 37.2029C364.598 37.0664 364.735 37.0469 364.871 37.0859C364.969 37.1054 365.066 37.1054 365.144 37.1639C365.378 37.2613 365.592 37.2418 365.826 37.2029C367.054 37.0469 368.068 36.4233 369.023 35.7216C369.393 35.4488 369.763 35.1564 370.095 34.8251C370.465 34.4743 370.777 34.065 370.855 33.5192C370.855 33.4608 370.874 33.3828 370.874 33.3243C370.855 33.1294 370.718 32.954 370.523 32.954C370.309 32.9735 370.095 32.9735 369.9 33.0125C368.633 33.2269 367.444 33.6167 366.333 34.2209C365.047 34.9615 363.76 35.7216 362.591 36.6376C361.987 37.1249 361.363 37.5927 360.837 38.1384C360.233 38.7815 359.57 39.3662 359.122 40.1458C358.888 40.5551 358.576 40.906 358.323 41.2958C358.089 41.6466 357.855 41.9974 357.64 42.3482C357.465 42.6601 357.348 42.9719 357.329 43.3422C357.29 44.0049 357.484 44.2387 358.147 44.2777C359.024 44.3362 359.901 44.2582 360.778 44.0828C362.084 43.8295 363.37 43.5371 364.676 43.3227C366.528 43.0304 368.36 43.1863 370.095 43.9464C370.64 44.1803 371.166 44.3752 371.654 44.7455C372.55 45.4081 373.018 46.2852 372.882 47.4546C372.804 48.1173 372.589 48.702 372.199 49.2477C371.4 50.3196 370.543 51.3331 369.49 52.1517C369.003 52.5415 368.477 52.9118 367.97 53.2626C367.483 53.5939 366.898 53.7109 366.352 53.8863C365.631 54.1202 364.891 54.1592 364.15 54.2371C363.254 54.3346 362.415 54.0032 361.616 53.5939C360.837 53.2041 360.35 52.522 359.882 51.8398C359.804 51.7229 359.765 51.567 359.745 51.4306C359.687 51.2357 359.765 51.0602 359.901 51.0213C360.057 50.9628 360.155 51.0797 360.252 51.1772C360.583 51.4695 360.934 51.7424 361.246 52.0542C361.499 52.2881 361.811 52.444 362.143 52.5805C362.26 52.6194 362.415 52.6389 362.552 52.6194C363.604 52.5805 364.618 52.3271 365.631 52.0542C366.099 51.9373 366.547 51.6644 366.898 51.3331C367.658 50.612 368.438 49.9103 369.159 49.1502C369.802 48.4681 370.328 47.708 370.66 46.8114C370.738 46.5581 370.796 46.3242 370.796 46.0513C370.796 45.4861 370.777 45.4666 370.231 45.2717C369.51 44.9989 368.769 44.9599 368.029 44.9794ZM381.932 47.4156C380.724 47.4546 379.476 46.597 379.145 45.603C379.009 45.2132 378.872 44.8234 378.97 44.3947C379.009 44.2582 378.911 44.0828 378.872 43.9269C378.755 44.0244 378.619 44.0828 378.521 44.1998C378.151 44.6675 377.781 45.1353 377.43 45.642C376.962 46.3437 376.299 46.8309 375.617 47.3182C375.169 47.63 374 47.4546 373.454 47.0453C372.655 46.4411 372.324 45.6615 372.401 44.6285C372.538 43.1473 372.83 41.7245 373.337 40.3213C373.551 39.7171 373.727 39.0739 373.922 38.4697C374.253 37.4562 374.584 36.4427 374.916 35.4293C374.994 35.1954 375.111 35.0395 375.364 35.0784C376.007 35.1564 376.592 35.3513 377.099 35.7606C377.566 36.1309 377.742 36.6182 377.527 37.2029C377.216 38.1189 376.923 39.0154 376.611 39.912C376.222 41.0424 375.773 42.1533 375.442 43.3032C375.228 44.0049 375.15 44.7455 375.033 45.4666C375.013 45.5836 375.091 45.7005 375.13 45.8174C375.228 45.7785 375.344 45.7785 375.422 45.7005C375.734 45.3887 376.105 45.0963 376.358 44.7455C377.099 43.7125 377.8 42.6601 378.502 41.6271C379.067 40.8085 379.632 39.9899 380.197 39.1713C380.587 38.6061 380.899 38.0214 381.114 37.3783C381.308 36.7546 381.542 36.1504 381.757 35.5267C381.854 35.2539 382.088 35.1759 382.322 35.1759C383.16 35.1954 383.881 35.5072 384.446 36.1504C384.661 36.4038 384.661 36.7156 384.544 37.0664C384.115 38.2358 383.725 39.4247 383.316 40.6136C383.121 41.1593 382.907 41.705 382.712 42.2703C382.4 43.2058 382.088 44.1608 381.776 45.1158C381.757 45.1938 381.698 45.2717 381.718 45.3497C381.718 45.4666 381.757 45.6225 381.815 45.642C381.913 45.6615 382.088 45.642 382.166 45.5836C382.517 45.2717 382.868 44.9404 383.199 44.6091C383.55 44.2387 383.862 43.8489 384.212 43.4786C384.31 43.3812 384.407 43.2642 384.544 43.1668C384.739 43.0304 384.895 43.0693 384.895 43.3032C384.895 43.7125 384.875 44.1218 384.778 44.5311C384.583 45.4081 384.095 46.1683 383.472 46.8114C383.024 47.2987 382.4 47.4351 381.932 47.4156ZM392.063 37.924C392.024 37.807 391.965 37.7096 391.926 37.5927C391.829 37.6511 391.712 37.6706 391.614 37.7291C391.517 37.807 391.439 37.9045 391.361 38.0019C390.776 38.957 390.172 39.912 389.587 40.867C389.276 41.3737 388.964 41.8805 388.671 42.4067C388.321 43.0693 387.95 43.7125 387.638 44.4142C387.346 45.0573 387.444 45.2132 388.048 45.6615C388.301 45.8564 388.515 45.8759 388.749 45.72C389.256 45.3887 389.587 44.9209 389.802 44.3557C390.484 42.5431 391.147 40.7111 391.79 38.879C391.907 38.5672 391.985 38.2358 392.063 37.924ZM384.345 53.0677C384.364 53.3016 384.403 53.5355 384.403 53.7888C384.423 54.0617 384.286 54.2371 384.013 54.2371C383.682 54.2566 383.37 54.2566 383.058 54.0422C382.045 53.4185 381.382 52.6 381.402 51.4111C381.421 50.3976 381.597 49.4231 381.791 48.4486C382.084 46.9284 382.707 45.5251 383.058 44.0244C383.214 43.3032 383.526 42.6211 383.721 41.9194C384.091 40.6136 384.676 39.4052 385.124 38.1384C385.514 37.0664 385.904 35.975 386.255 34.8835C386.411 34.3768 386.508 34.2988 387.093 34.3963C387.794 34.5132 388.379 34.903 388.866 35.4488C388.983 35.5852 389.061 35.8191 389.061 35.9945C389.022 36.4038 388.944 36.8325 388.866 37.2418C388.788 37.6316 388.671 38.0214 388.574 38.4112C388.554 38.4697 388.613 38.5477 388.632 38.6256C388.691 38.5866 388.788 38.5672 388.827 38.5087C389.081 38.1774 389.315 37.8265 389.548 37.4952C390.036 36.8715 390.503 36.2284 390.991 35.6242C391.244 35.3318 391.517 35.0395 391.848 34.8251C392.316 34.5522 392.881 34.5912 393.427 34.7471C394.596 35.1369 394.869 35.6631 394.986 36.6182C395.103 37.4757 395.025 38.2943 394.85 39.1129C394.499 40.6526 393.973 42.0948 393.31 43.4981C392.862 44.4921 392.355 45.4471 391.868 46.4021C391.829 46.4801 391.809 46.5581 391.751 46.636C391.419 47.1038 389.919 47.591 389.315 47.4546C388.593 47.2597 387.97 46.9089 387.424 46.3437C386.761 45.6615 385.728 45.8954 385.514 46.7724C385.124 48.3901 384.715 50.0078 384.364 51.6449C384.267 52.0932 384.306 52.6 384.286 53.0677C384.306 53.0677 384.325 53.0677 384.345 53.0677ZM399.839 37.2029C399.683 37.3003 399.566 37.3588 399.488 37.4367C399.332 37.5732 399.215 37.7291 399.078 37.8655C398.084 38.84 397.402 39.9899 396.857 41.2568C396.642 41.7245 396.798 42.0948 397.012 42.4652C397.129 42.699 397.285 42.7575 397.539 42.5821C397.987 42.2508 398.26 41.783 398.474 41.2763C398.981 40.1069 399.468 38.9375 399.955 37.7486C399.994 37.6511 400.033 37.5342 400.033 37.4367C400.014 37.3588 399.917 37.3003 399.839 37.2029ZM398.435 47.591C397.402 47.63 396.545 47.2207 395.765 46.6555C394.108 45.4471 393.641 43.7515 394.011 41.822C394.362 39.9899 395.102 38.3333 396.389 36.9495C396.993 36.2868 397.734 35.7411 398.455 35.1759C398.786 34.903 399.215 34.903 399.624 35.02C400.014 35.1369 400.423 35.2149 400.813 35.3708C401.203 35.5072 401.612 35.6437 401.924 35.897C402.489 36.3453 402.567 36.969 402.411 37.6706C402.08 38.9959 401.534 40.2433 400.93 41.4907C400.677 42.0364 400.423 42.5821 400.092 43.0888C399.858 43.4786 399.527 43.81 399.195 44.1023C398.923 44.3557 398.611 44.3947 398.221 44.2582C397.753 44.0828 397.324 43.8489 396.974 43.4786C396.818 43.3227 396.623 43.1278 396.428 43.2642C396.272 43.3617 396.155 43.5956 396.135 43.7905C396.077 44.1998 396.038 44.6285 396.096 45.0183C396.213 45.7979 396.642 46.4606 397.636 46.2852C398.474 46.1488 399.176 45.759 399.819 45.2132C400.872 44.3167 401.768 43.2448 402.645 42.1728C403.21 41.4517 403.815 40.789 404.419 40.1069C404.497 40.0094 404.633 39.9899 404.731 39.9315C404.77 40.0679 404.886 40.2238 404.847 40.3213C404.575 41.2568 404.302 42.1923 403.698 42.9914C403.074 43.8684 402.47 44.765 401.788 45.6225C401.398 46.1293 400.93 46.597 400.443 47.0063C399.858 47.5131 399.156 47.6105 398.435 47.591ZM410.389 39.3857C410.487 38.8985 410.604 38.4112 410.701 37.924C410.721 37.8265 410.662 37.7291 410.643 37.6316C410.565 37.6706 410.467 37.7096 410.409 37.7876C410.136 38.1189 409.843 38.4697 409.629 38.84C408.713 40.2823 407.836 41.744 407.115 43.3227C406.589 44.4531 405.984 45.5641 405.4 46.675C404.912 47.591 404.562 47.63 403.704 47.0453C403.119 46.636 402.632 46.1488 402.418 45.4666C402.34 45.1743 402.301 44.804 402.379 44.5116C402.808 43.1083 403.256 41.705 403.938 40.3797C404.737 38.801 405.478 37.1834 406.238 35.5852C406.511 34.981 406.803 34.8056 407.388 35.059C407.758 35.1954 408.089 35.4488 408.382 35.7021C408.694 35.975 408.849 36.3648 408.733 36.8131C408.694 36.969 408.674 37.1054 408.655 37.2613C408.635 37.3198 408.674 37.3783 408.694 37.4367C408.752 37.4172 408.81 37.4172 408.849 37.3783C409.122 37.0859 409.395 36.7936 409.649 36.5012C409.98 36.1114 410.311 35.7216 410.662 35.3318C410.954 35.0395 411.247 34.7471 411.559 34.4937C412.611 33.6557 414.19 34.1429 414.56 35.4293C414.619 35.6631 414.58 35.9555 414.521 36.1894C414.307 36.9105 414.151 37.6706 413.702 38.3138C413.702 38.3333 413.683 38.3528 413.683 38.3723C413.625 38.5866 413.391 38.84 413.644 39.0154C413.897 39.2103 414.073 38.9375 414.248 38.801C414.657 38.4502 415.047 38.0994 415.437 37.7681C415.515 37.7096 415.651 37.6706 415.729 37.7096C415.807 37.7291 415.827 37.885 415.827 37.9825C415.846 38.0994 415.846 38.2553 415.788 38.3528C415.359 39.0739 414.93 39.8145 414.443 40.4967C414.17 40.8865 413.8 41.1983 413.449 41.5296C412.884 42.1143 411.909 42.1338 411.286 41.4907C410.74 40.9254 410.35 40.2433 410.389 39.3857ZM413.836 48.585C413.816 48.9553 413.952 49.5985 414.108 50.2222C414.167 50.4171 414.264 50.5925 414.362 50.7484C414.576 51.0797 414.888 51.2941 415.317 51.2357C415.824 51.1772 416.369 51.1772 416.857 51.0213C418.104 50.5925 419.273 50.0857 420.404 49.3451C421.612 48.546 422.509 47.4546 423.503 46.4411C423.834 46.1098 424.165 45.7785 424.477 45.4666C424.769 45.1743 425.062 44.8819 425.374 44.5896C425.608 44.3752 425.822 44.4336 425.9 44.765C425.958 44.9989 425.958 45.2522 425.997 45.5056C425.997 45.5836 425.939 45.681 425.958 45.7395C426.153 46.2657 425.88 46.6165 425.588 46.9868C425.101 47.591 424.633 48.1952 424.146 48.7799C423.6 49.4231 422.976 49.9883 422.275 50.495C421.612 50.9823 420.891 51.3721 420.189 51.7619C419.527 52.1322 418.767 52.3076 418.026 52.5025C417.909 52.522 417.792 52.522 417.695 52.561C416.895 52.8143 416.096 52.7754 415.297 52.5025C414.908 52.3661 414.498 52.2686 414.128 52.0932C413.309 51.7229 412.725 51.0797 412.237 50.3391C411.38 49.0333 411.048 47.591 411.107 46.0513C411.126 45.7005 411.185 45.3497 411.302 45.0183C411.867 43.3032 412.549 41.6271 413.387 40.0289C413.816 39.1713 414.381 38.3917 414.888 37.5732C415.297 36.891 415.746 36.2478 416.291 35.6826C416.74 35.2344 417.168 34.7666 417.617 34.3378C418.416 33.5777 419.215 32.8371 420.033 32.116C420.228 31.9406 420.462 31.7846 420.696 31.6677C421.651 31.1804 422.645 30.8101 423.659 30.4593C424.146 30.3034 424.594 30.2449 425.101 30.3619C426.212 30.6347 427.225 31.044 428.083 31.8041C428.667 32.3304 428.96 32.993 429.135 33.7141C429.311 34.3963 429.057 35.0005 428.648 35.5657C428.18 36.2089 427.673 36.8131 427.108 37.3588C426.407 38.0604 425.744 38.7815 424.925 39.3468C424.594 39.6001 424.224 39.7755 423.834 39.912C423.21 40.1069 422.645 39.9315 422.177 39.4832C421.943 39.2688 421.749 38.9959 421.573 38.7231C421.359 38.3917 421.437 38.2358 421.865 38.1189C422.567 37.9045 423.171 37.5342 423.717 37.0859C424.691 36.2478 425.588 35.3318 426.407 34.3378C426.738 33.948 426.913 33.4998 426.991 32.993C427.03 32.7202 426.894 32.5642 426.621 32.5837C426.387 32.5837 426.134 32.5837 425.9 32.6422C424.828 32.9151 423.834 33.3828 422.898 33.948C422.489 34.1819 422.119 34.4743 421.768 34.7861C421.027 35.4488 420.248 36.1114 419.585 36.891C419.117 37.4367 418.552 37.924 418.084 38.5087C417.324 39.4442 416.642 40.4187 416.077 41.4907C415.473 42.6601 414.869 43.8295 414.459 45.0768C414.108 46.1098 413.875 47.1817 413.836 48.585ZM431.55 40.9644C431.53 41.5101 431.667 41.6076 432.037 41.4322C432.154 41.3737 432.251 41.2958 432.329 41.1983C432.524 40.9449 432.719 40.7111 432.836 40.4382C433.304 39.3468 433.752 38.2553 434.181 37.1639C434.278 36.9495 434.434 36.6376 434.181 36.5012C433.908 36.3843 433.772 36.6961 433.635 36.8715C432.797 37.963 432.154 39.1519 431.686 40.4382C431.608 40.6526 431.569 40.867 431.55 40.9644ZM428.49 45.1548C428.509 45.1548 428.529 45.1548 428.548 45.1743C428.548 45.2327 428.568 45.2912 428.568 45.3692C428.626 45.759 428.704 45.8369 429.074 45.642C429.308 45.5251 429.542 45.3497 429.737 45.1548C430.302 44.5896 430.907 44.0633 431.277 43.3422C431.433 43.0693 431.374 42.9134 431.121 42.7575C430.712 42.4846 430.302 42.1923 429.893 41.9194C429.601 41.705 429.406 41.744 429.308 42.0948C429.016 43.1083 428.763 44.1218 428.49 45.1548ZM425.839 43.2058C425.956 42.0169 426.268 41.0034 426.755 40.0094C427.067 39.4247 427.32 38.801 427.632 38.2163C428.295 37.0469 428.899 35.8386 429.776 34.8056C430.244 34.2404 430.478 34.1624 431.16 34.3573C431.296 34.3963 431.394 34.4548 431.53 34.5132C431.784 34.6107 432.037 34.6107 432.251 34.4353C432.641 34.0845 433.05 34.0845 433.538 34.2014C433.947 34.3183 434.376 34.3768 434.766 34.5912C435.74 35.0979 436.286 36.2284 436.013 37.3003C435.954 37.5147 435.876 37.7096 435.818 37.924C435.799 38.0214 435.857 38.1579 435.876 38.2748C435.993 38.2358 436.13 38.2358 436.227 38.1774C436.422 38.0214 436.617 37.8265 436.812 37.6511C437.182 37.3198 437.553 36.9885 437.923 36.6571C438.001 36.5987 438.157 36.5987 438.274 36.5597C438.313 36.6961 438.391 36.8715 438.352 36.969C438.176 37.3783 438.001 37.7681 437.767 38.1384C437.163 39.0934 436.442 39.9315 435.604 40.7111C434.921 41.3347 434.22 41.9584 433.713 42.7575C433.538 43.0499 433.382 43.3617 433.206 43.654C432.427 44.8819 431.433 45.9344 430.38 46.9284C429.913 47.3766 429.328 47.63 428.724 47.5131C428.236 47.4156 427.749 47.1233 427.359 46.8114C426.599 46.2462 426.151 45.4276 425.937 44.5311C425.82 44.0828 425.859 43.5956 425.839 43.2058ZM444.205 49.3841C443.835 49.4426 443.406 49.1892 442.978 48.8969C441.847 48.1367 441.321 47.1622 441.516 45.7785C441.75 44.1608 442.217 42.6211 442.861 41.1203C443.328 39.9704 443.816 38.8205 444.283 37.6706C444.361 37.4757 444.478 37.3003 444.576 37.1249C444.595 37.0469 444.576 36.969 444.595 36.891C444.537 36.9105 444.439 36.93 444.4 36.969C443.913 37.6121 443.367 38.2553 442.939 38.9375C442.178 40.1458 441.457 41.3932 440.756 42.6406C440.21 43.654 439.703 44.6675 439.157 45.681C438.982 46.0318 438.768 46.3437 438.573 46.675C438.397 46.9673 438.125 47.0063 437.813 46.9673C436.702 46.8699 436 46.2072 435.474 45.2912C435.259 44.9404 435.279 44.5311 435.376 44.1608C435.532 43.3812 435.727 42.6016 435.922 41.822C436.448 39.873 437.228 38.0214 438.027 36.1699C438.144 35.897 438.202 35.5852 438.28 35.2928C438.378 35.0005 438.534 34.9225 438.846 34.9615C439.391 35.02 439.879 35.2344 440.327 35.5267C440.892 35.897 441.029 36.4622 440.775 37.1444C440.502 37.8655 440.19 38.5477 439.918 39.2688C439.586 40.1069 439.294 40.9449 438.963 41.783C438.846 42.0948 438.709 42.3872 438.612 42.699C438.573 42.777 438.612 42.8939 438.612 42.9719C438.69 42.9134 438.807 42.8744 438.846 42.7965C439.06 42.4067 439.235 41.9779 439.45 41.5881C440.327 40.0874 441.204 38.5866 442.081 37.0859C442.568 36.2868 443.192 35.6242 443.913 35.0395C444.225 34.7861 444.576 34.5717 444.927 34.3573C445.316 34.1429 445.745 34.1624 446.135 34.2988C446.739 34.5132 447.363 34.7471 447.87 35.1759C448.318 35.5462 448.435 35.9945 448.337 36.5987C448.181 37.5537 447.636 38.3333 447.304 39.2103C446.934 40.1848 446.466 41.1203 446.057 42.0754C445.784 42.7185 445.55 43.3617 445.336 44.0244C445.082 44.804 444.868 45.603 444.654 46.3826C444.576 46.675 444.4 47.0843 444.712 47.2207C444.985 47.3377 445.18 46.9284 445.375 46.6945C446.505 45.2912 447.616 43.8684 448.727 42.4652C448.766 42.4262 448.786 42.3872 448.805 42.3677C448.961 42.2508 449.117 42.1533 449.273 42.0364C449.312 42.2118 449.39 42.3872 449.37 42.5626C449.273 43.3422 449.058 44.0828 448.747 44.804C448.201 46.0123 447.499 47.1038 446.778 48.1952C446.232 48.9943 445.375 49.3646 444.205 49.3841ZM455.343 37.3783C454.31 37.3978 453.628 37.8655 453.121 38.5477C452.361 39.5417 451.503 40.4772 450.958 41.6271C450.704 42.1728 450.431 42.699 450.198 43.2448C450.003 43.7515 449.808 44.2582 449.671 44.7845C449.613 45.0573 449.476 45.4276 449.808 45.642C450.159 45.8759 450.412 45.5641 450.607 45.3887C451.308 44.765 451.991 44.1413 452.517 43.3422C452.829 42.8744 453.179 42.4457 453.472 41.9779C454.251 40.75 455.012 39.5222 455.791 38.2943C455.869 38.1579 455.908 38.0214 455.947 37.8655C456.006 37.6316 455.928 37.4757 455.655 37.4367C455.518 37.4172 455.382 37.3978 455.343 37.3783ZM447.43 44.1998C447.371 43.1863 447.644 42.2703 448.015 41.3932C448.794 39.5611 449.769 37.8655 451.191 36.4622C451.562 36.1114 452.049 35.8386 452.556 35.6437C452.829 35.5462 453.238 35.6047 453.53 35.7216C454.29 36.0335 455.089 36.3063 455.733 36.891C456.045 37.1834 456.239 37.1444 456.395 36.7741C456.551 36.3843 456.668 35.9555 456.805 35.5462C457.136 34.5912 457.467 33.6362 457.799 32.6812C458.169 31.6482 458.539 30.6542 458.91 29.6212C459.085 29.134 459.221 28.9976 459.728 29.1535C460.313 29.3289 460.878 29.6212 461.248 30.2059C461.404 30.4593 461.482 30.6932 461.385 30.9661C461.287 31.2389 461.229 31.5118 461.151 31.7846C460.508 34.065 459.709 36.2868 458.929 38.5087C458.364 40.1458 457.877 41.822 457.389 43.4786C457.214 44.0828 457.155 44.726 457.077 45.3692C457.038 45.5641 456.961 45.8564 457.233 45.9734C457.428 46.0318 457.682 45.9928 457.857 45.8954C458.208 45.7005 458.539 45.4666 458.832 45.1938C459.397 44.648 459.923 44.0438 460.469 43.4981C460.625 43.3422 460.742 43.0109 461.034 43.1863C461.287 43.3422 461.268 43.654 461.151 43.8684C460.742 44.6675 460.586 45.6225 459.884 46.2462C459.514 46.5775 459.124 46.9284 458.695 47.1817C457.955 47.63 457.136 47.552 456.337 47.0648C455.343 46.4411 454.739 45.5641 454.505 44.4726C454.485 44.3362 454.485 44.1998 454.446 44.0633C454.427 43.9659 454.349 43.8295 454.271 43.7905C454.212 43.771 454.076 43.8489 454.018 43.9074C453.686 44.3167 453.374 44.7065 453.063 45.1158C452.556 45.8369 451.991 46.4996 451.211 46.9479C450.314 47.4546 449.184 47.4546 448.249 46.3437C447.722 45.7005 447.488 44.9794 447.43 44.1998ZM468.495 47.4156C467.287 47.4546 466.039 46.597 465.708 45.603C465.572 45.2132 465.435 44.8234 465.533 44.3947C465.572 44.2582 465.474 44.0828 465.435 43.9269C465.318 44.0244 465.182 44.0828 465.084 44.1998C464.714 44.6675 464.344 45.1353 463.993 45.642C463.525 46.3437 462.863 46.8309 462.18 47.3182C461.732 47.63 460.563 47.4546 460.017 47.0453C459.218 46.4411 458.887 45.6615 458.965 44.6285C459.101 43.1473 459.393 41.7245 459.9 40.3213C460.114 39.7171 460.29 39.0739 460.485 38.4697C460.816 37.4562 461.147 36.4427 461.479 35.4293C461.557 35.1954 461.674 35.0395 461.927 35.0784C462.57 35.1564 463.155 35.3513 463.662 35.7606C464.129 36.1309 464.305 36.6182 464.09 37.2029C463.779 38.1189 463.486 39.0154 463.174 39.912C462.785 41.0424 462.336 42.1533 462.005 43.3032C461.791 44.0049 461.713 44.7455 461.596 45.4666C461.576 45.5836 461.654 45.7005 461.693 45.8174C461.791 45.7785 461.907 45.7785 461.985 45.7005C462.297 45.3887 462.668 45.0963 462.921 44.7455C463.662 43.7125 464.363 42.6601 465.065 41.6271C465.63 40.8085 466.195 39.9899 466.761 39.1713C467.15 38.6061 467.462 38.0214 467.677 37.3783C467.871 36.7546 468.105 36.1504 468.32 35.5267C468.417 35.2539 468.651 35.1759 468.885 35.1759C469.723 35.1954 470.444 35.5072 471.009 36.1504C471.224 36.4038 471.224 36.7156 471.107 37.0664C470.678 38.2358 470.288 39.4247 469.879 40.6136C469.684 41.1593 469.47 41.705 469.275 42.2703C468.963 43.2058 468.651 44.1608 468.339 45.1158C468.32 45.1938 468.261 45.2717 468.281 45.3497C468.281 45.4666 468.32 45.6225 468.378 45.642C468.476 45.6615 468.651 45.642 468.729 45.5836C469.08 45.2717 469.431 44.9404 469.762 44.6091C470.113 44.2387 470.425 43.8489 470.775 43.4786C470.873 43.3812 470.97 43.2642 471.107 43.1668C471.302 43.0304 471.458 43.0693 471.458 43.3032C471.458 43.7125 471.438 44.1218 471.341 44.5311C471.146 45.4081 470.659 46.1683 470.035 46.8114C469.587 47.2987 468.963 47.4351 468.495 47.4156ZM479.074 37.2613C479.093 37.7876 478.937 38.2943 478.743 38.7815C478.509 39.3078 478.002 39.4832 477.554 39.7366C477.437 39.795 477.183 39.7171 477.086 39.6196C477.027 39.5222 477.066 39.3078 477.125 39.1519C477.281 38.7231 477.456 38.2943 477.612 37.8655C477.71 37.6121 477.69 37.3588 477.456 37.1639C477.242 36.969 477.008 37.0664 476.794 37.1834C475.8 37.7096 475.001 38.4697 474.357 39.3662C473.578 40.4577 472.876 41.5881 472.389 42.816C472.077 43.6346 471.941 44.4921 472.058 45.3692C472.155 46.0708 472.72 46.4801 473.48 46.3826C474.455 46.2657 475.351 45.9539 476.15 45.3107C477.183 44.4921 478.099 43.5176 479.015 42.5626C479.093 42.4846 479.152 42.4067 479.23 42.3287C479.366 42.2118 479.483 42.2508 479.503 42.4262C479.503 42.6211 479.483 42.816 479.444 42.9914C479.093 44.2582 478.45 45.3692 477.534 46.2852C476.911 46.9479 476.092 47.2402 475.234 47.4351C474.903 47.5131 474.552 47.552 474.221 47.591C474.065 47.6105 473.89 47.63 473.753 47.591C473.207 47.4156 472.642 47.2597 472.135 46.9868C471.103 46.4411 470.42 45.5836 469.992 44.4921C469.621 43.4981 469.699 42.5236 470.109 41.5881C470.42 40.867 470.713 40.1458 471.083 39.4637C471.492 38.7036 471.98 37.9825 472.467 37.2613C472.584 37.0859 472.74 36.93 472.915 36.7936C473.461 36.3453 474.007 35.8775 474.572 35.4293C474.923 35.1564 475.351 35.0784 475.8 35.1564C476.306 35.2344 476.833 35.2928 477.339 35.3708C478.002 35.4877 478.509 35.8775 478.899 36.3843C479.054 36.5987 479.015 36.9495 479.074 37.2613ZM487.681 32.7007C488.344 32.7007 489.006 32.6812 489.689 32.7007C489.883 32.7202 490.137 32.7981 490.254 32.9345C490.663 33.3438 490.449 33.8701 489.844 33.9675C489.416 34.026 488.987 34.026 488.558 34.0455C487.817 34.1039 487.077 34.1429 486.356 34.1624C485.868 34.1819 485.537 34.3768 485.342 34.8446C484.485 36.93 483.452 38.9375 482.886 41.1398C482.653 41.9779 482.282 42.7965 482.009 43.654C481.698 44.6285 481.405 45.642 481.113 46.636C480.801 47.7664 480.528 48.8969 480.236 50.0273C480.119 50.4755 480.021 50.9238 479.944 51.3721C479.924 51.528 480.002 51.7034 480.041 51.8593C480.177 51.7814 480.353 51.7424 480.45 51.6255C480.743 51.2941 481.015 50.9628 481.23 50.5925C481.97 49.3841 482.672 48.1757 483.374 46.9479C484.017 45.8759 484.621 44.765 485.245 43.6735C485.264 43.6151 485.362 43.5956 485.44 43.5566C485.44 43.6346 485.498 43.732 485.479 43.7905C485.303 44.5116 485.206 45.2522 484.933 45.9344C484.407 47.3182 483.803 48.702 483.159 50.0468C482.77 50.8653 482.302 51.6644 481.834 52.444C481.405 53.1262 480.84 53.6914 480.021 53.9448C479.515 54.1007 479.047 54.0812 478.579 53.8083C477.312 53.0677 476.767 51.9373 477.078 50.4366C477.566 48.0003 478.15 45.5641 478.93 43.2058C479.515 41.4517 480.138 39.7171 480.762 37.9825C481.132 36.969 481.561 35.9555 481.931 34.942C482.146 34.3963 481.99 34.2209 481.386 34.2209C480.099 34.2209 478.852 34.5132 477.566 34.5912C477.234 34.5912 476.884 34.5912 476.533 34.5912C476.338 34.5717 476.104 34.5522 476.104 34.2988C476.104 34.065 476.338 34.1039 476.513 34.065C477.78 33.8896 479.027 33.6947 480.294 33.5192C480.821 33.4413 481.327 33.3438 481.854 33.3438C482.36 33.3438 482.672 33.071 482.867 32.6617C483.14 32.0185 483.374 31.3753 483.588 30.7127C483.803 30.1085 483.9 30.011 484.524 30.167C484.991 30.3034 485.498 30.4008 485.868 30.7906C486.258 31.1804 486.453 31.6092 486.297 32.1939C486.18 32.6617 486.297 32.7786 486.765 32.7981C487.057 32.7981 487.369 32.7981 487.681 32.7981C487.681 32.7591 487.681 32.7396 487.681 32.7007ZM489.905 40.9644C489.886 41.5101 490.022 41.6076 490.393 41.4322C490.51 41.3737 490.607 41.2958 490.685 41.1983C490.88 40.9449 491.075 40.7111 491.192 40.4382C491.66 39.3468 492.108 38.2553 492.537 37.1639C492.634 36.9495 492.79 36.6376 492.537 36.5012C492.264 36.3843 492.127 36.6961 491.991 36.8715C491.153 37.963 490.51 39.1519 490.042 40.4382C489.964 40.6526 489.925 40.867 489.905 40.9644ZM486.846 45.1548C486.865 45.1548 486.885 45.1548 486.904 45.1743C486.904 45.2327 486.924 45.2912 486.924 45.3692C486.982 45.759 487.06 45.8369 487.43 45.642C487.664 45.5251 487.898 45.3497 488.093 45.1548C488.658 44.5896 489.262 44.0633 489.633 43.3422C489.789 43.0693 489.73 42.9134 489.477 42.7575C489.067 42.4846 488.658 42.1923 488.249 41.9194C487.956 41.705 487.762 41.744 487.664 42.0948C487.372 43.1083 487.118 44.1218 486.846 45.1548ZM484.195 43.2058C484.312 42.0169 484.624 41.0034 485.111 40.0094C485.423 39.4247 485.676 38.801 485.988 38.2163C486.651 37.0469 487.255 35.8386 488.132 34.8056C488.6 34.2404 488.834 34.1624 489.516 34.3573C489.652 34.3963 489.75 34.4548 489.886 34.5132C490.139 34.6107 490.393 34.6107 490.607 34.4353C490.997 34.0845 491.406 34.0845 491.893 34.2014C492.303 34.3183 492.732 34.3768 493.121 34.5912C494.096 35.0979 494.642 36.2284 494.369 37.3003C494.31 37.5147 494.232 37.7096 494.174 37.924C494.154 38.0214 494.213 38.1579 494.232 38.2748C494.349 38.2358 494.486 38.2358 494.583 38.1774C494.778 38.0214 494.973 37.8265 495.168 37.6511C495.538 37.3198 495.908 36.9885 496.279 36.6571C496.357 36.5987 496.513 36.5987 496.63 36.5597C496.669 36.6961 496.746 36.8715 496.708 36.969C496.532 37.3783 496.357 37.7681 496.123 38.1384C495.519 39.0934 494.797 39.9315 493.959 40.7111C493.277 41.3347 492.576 41.9584 492.069 42.7575C491.893 43.0499 491.738 43.3617 491.562 43.654C490.783 44.8819 489.789 45.9344 488.736 46.9284C488.268 47.3766 487.684 47.63 487.079 47.5131C486.592 47.4156 486.105 47.1233 485.715 46.8114C484.955 46.2462 484.507 45.4276 484.292 44.5311C484.175 44.0828 484.214 43.5956 484.195 43.2058ZM501.996 39.3857C502.093 38.8985 502.21 38.4112 502.308 37.924C502.327 37.8265 502.269 37.7291 502.249 37.6316C502.171 37.6706 502.074 37.7096 502.015 37.7876C501.743 38.1189 501.45 38.4697 501.236 38.84C500.32 40.2823 499.443 41.744 498.722 43.3227C498.195 44.4531 497.591 45.5641 497.007 46.675C496.519 47.591 496.168 47.63 495.311 47.0453C494.726 46.636 494.239 46.1488 494.025 45.4666C493.947 45.1743 493.908 44.804 493.986 44.5116C494.414 43.1083 494.863 41.705 495.545 40.3797C496.344 38.801 497.085 37.1834 497.845 35.5852C498.117 34.981 498.41 34.8056 498.995 35.059C499.365 35.1954 499.696 35.4488 499.989 35.7021C500.3 35.975 500.456 36.3648 500.339 36.8131C500.3 36.969 500.281 37.1054 500.261 37.2613C500.242 37.3198 500.281 37.3783 500.3 37.4367C500.359 37.4172 500.417 37.4172 500.456 37.3783C500.729 37.0859 501.002 36.7936 501.255 36.5012C501.587 36.1114 501.918 35.7216 502.269 35.3318C502.561 35.0395 502.854 34.7471 503.165 34.4937C504.218 33.6557 505.797 34.1429 506.167 35.4293C506.225 35.6631 506.186 35.9555 506.128 36.1894C505.913 36.9105 505.758 37.6706 505.309 38.3138C505.309 38.3333 505.29 38.3528 505.29 38.3723C505.231 38.5866 504.997 38.84 505.251 39.0154C505.504 39.2103 505.68 38.9375 505.855 38.801C506.264 38.4502 506.654 38.0994 507.044 37.7681C507.122 37.7096 507.258 37.6706 507.336 37.7096C507.414 37.7291 507.434 37.885 507.434 37.9825C507.453 38.0994 507.453 38.2553 507.395 38.3528C506.966 39.0739 506.537 39.8145 506.05 40.4967C505.777 40.8865 505.407 41.1983 505.056 41.5296C504.491 42.1143 503.516 42.1338 502.893 41.4907C502.347 40.9254 501.957 40.2433 501.996 39.3857Z" fill="#AC6675"/>
<path id="polyperformer" d="M39.3656 29.6399H45.0925L44.6083 31.9349C45.8294 30.9243 46.9734 30.2014 48.0402 29.7663C49.1069 29.3311 50.2509 29.1136 51.4721 29.1136C53.8162 29.1136 55.6971 29.9207 57.1147 31.5348C58.5465 33.149 59.2623 35.5563 59.2623 38.7566C59.2623 42.7851 58.0341 46.1889 55.5778 48.9681C53.4723 51.3403 50.9808 52.5264 48.1033 52.5264C45.1416 52.5264 42.9028 51.3263 41.3869 48.926L38.9656 60.5271H32.9229L39.3656 29.6399ZM43.0081 42.4622C43.0081 44.2027 43.4292 45.5573 44.2714 46.5258C45.1276 47.4803 46.1312 47.9575 47.2822 47.9575C48.2788 47.9575 49.2403 47.5996 50.1667 46.8837C51.0931 46.1538 51.8581 44.9537 52.4617 43.2834C53.0793 41.599 53.3881 40.0409 53.3881 38.6092C53.3881 36.9389 52.988 35.6616 52.1879 34.7773C51.3879 33.8789 50.3702 33.4298 49.135 33.4298C47.984 33.4298 46.9313 33.8438 45.9768 34.672C45.0364 35.4861 44.3065 36.6932 43.7871 38.2934C43.2678 39.8795 43.0081 41.2691 43.0081 42.4622ZM60.6166 42.7149C60.6166 38.5741 61.7816 35.2756 64.1116 32.8192C66.4557 30.3488 69.5297 29.1136 73.3336 29.1136C76.6322 29.1136 79.2078 30.0259 81.0607 31.8507C82.9135 33.6614 83.8399 36.1037 83.8399 39.1777C83.8399 42.7991 82.6819 45.9292 80.3659 48.5681C78.0498 51.2069 74.9478 52.5264 71.0597 52.5264C68.9542 52.5264 67.0874 52.1053 65.4591 51.2631C63.8309 50.4209 62.6168 49.2278 61.8167 47.6838C61.0166 46.1398 60.6166 44.4835 60.6166 42.7149ZM77.8393 38.3987C77.8393 36.967 77.4182 35.823 76.576 34.9668C75.7479 34.0965 74.6741 33.6614 73.3546 33.6614C72.0493 33.6614 70.8912 34.0684 69.8806 34.8825C68.87 35.6826 68.084 36.8547 67.5225 38.3987C66.961 39.9286 66.6803 41.3393 66.6803 42.6307C66.6803 44.2308 67.1154 45.5011 67.9857 46.4416C68.856 47.382 69.9508 47.8522 71.2702 47.8522C72.9265 47.8522 74.3161 47.1434 75.4391 45.7257C77.0392 43.7185 77.8393 41.2761 77.8393 38.3987ZM84.5414 52L91.0052 21.1338H97.0269L90.5841 52H84.5414ZM96.9494 29.6399H102.971L104.487 40.7779C104.866 43.6413 105.076 45.6485 105.119 46.7995C105.905 44.5115 106.985 42.0973 108.361 39.5567L113.709 29.6399H120.11L106.298 54.1897C105.161 56.225 104.262 57.6497 103.603 58.4638C102.957 59.2779 102.171 59.9166 101.245 60.3798C100.332 60.843 99.2303 61.0746 97.9389 61.0746C96.6616 61.0746 95.2229 60.85 93.6227 60.4008L94.1491 55.8951C94.879 56.1057 95.5878 56.2109 96.2756 56.2109C98.1284 56.2109 99.6514 54.8073 100.844 52L96.9494 29.6399ZM122.053 29.6399H127.78L127.296 31.9349C128.517 30.9243 129.661 30.2014 130.728 29.7663C131.795 29.3311 132.939 29.1136 134.16 29.1136C136.504 29.1136 138.385 29.9207 139.802 31.5348C141.234 33.149 141.95 35.5563 141.95 38.7566C141.95 42.7851 140.722 46.1889 138.265 48.9681C136.16 51.3403 133.668 52.5264 130.791 52.5264C127.829 52.5264 125.59 51.3263 124.075 48.926L121.653 60.5271H115.611L122.053 29.6399ZM125.696 42.4622C125.696 44.2027 126.117 45.5573 126.959 46.5258C127.815 47.4803 128.819 47.9575 129.97 47.9575C130.966 47.9575 131.928 47.5996 132.854 46.8837C133.781 46.1538 134.546 44.9537 135.149 43.2834C135.767 41.599 136.076 40.0409 136.076 38.6092C136.076 36.9389 135.676 35.6616 134.876 34.7773C134.076 33.8789 133.058 33.4298 131.823 33.4298C130.672 33.4298 129.619 33.8438 128.664 34.672C127.724 35.4861 126.994 36.6932 126.475 38.2934C125.955 39.8795 125.696 41.2691 125.696 42.4622ZM164.19 42.6938H149.031C149.017 42.9324 149.01 43.1149 149.01 43.2413C149.01 44.7291 149.431 45.9292 150.273 46.8416C151.13 47.754 152.168 48.2102 153.389 48.2102C155.397 48.2102 156.962 47.1715 158.085 45.0941L163.496 45.9994C162.443 48.1751 161.032 49.8103 159.264 50.9052C157.509 51.986 155.537 52.5264 153.347 52.5264C150.343 52.5264 147.901 51.5789 146.02 49.684C144.139 47.775 143.199 45.2555 143.199 42.1254C143.199 39.0654 144.048 36.3423 145.747 33.9561C148.063 30.7277 151.368 29.1136 155.663 29.1136C158.4 29.1136 160.576 29.9628 162.19 31.6612C163.804 33.3455 164.612 35.7107 164.612 38.7566C164.612 40.2164 164.471 41.5288 164.19 42.6938ZM159.095 39.0093C159.109 38.7426 159.116 38.539 159.116 38.3987C159.116 36.7424 158.744 35.5001 158 34.672C157.256 33.8438 156.26 33.4298 155.011 33.4298C153.761 33.4298 152.638 33.9 151.642 34.8404C150.659 35.7809 149.993 37.1705 149.642 39.0093H159.095ZM169.25 29.6399H174.893L173.988 33.9772C176.093 30.7348 178.374 29.1136 180.83 29.1136C181.701 29.1136 182.634 29.3311 183.631 29.7663L181.315 34.7141C180.767 34.5176 180.185 34.4193 179.567 34.4193C178.528 34.4193 177.469 34.8124 176.388 35.5984C175.321 36.3844 174.486 37.4372 173.882 38.7566C173.279 40.062 172.682 42.1394 172.093 44.9888L170.619 52H164.576L169.25 29.6399ZM195.786 29.6399L194.86 34.0614H190.585L186.838 52H180.795L184.543 34.0614H181.174L182.1 29.6399H185.469L185.953 27.345C186.346 25.4641 186.718 24.1938 187.069 23.5341C187.547 22.6357 188.255 21.9269 189.196 21.4075C190.15 20.8742 191.393 20.6075 192.923 20.6075C194.775 20.6075 196.726 20.9443 198.776 21.6181L197.597 25.9343C196.151 25.443 194.979 25.1974 194.081 25.1974C193.393 25.1974 192.88 25.4149 192.544 25.8501C192.319 26.1308 192.087 26.8677 191.849 28.0608L191.512 29.6399H195.786ZM193.94 42.7149C193.94 38.5741 195.105 35.2756 197.435 32.8192C199.779 30.3488 202.853 29.1136 206.657 29.1136C209.955 29.1136 212.531 30.0259 214.384 31.8507C216.237 33.6614 217.163 36.1037 217.163 39.1777C217.163 42.7991 216.005 45.9292 213.689 48.5681C211.373 51.2069 208.271 52.5264 204.383 52.5264C202.278 52.5264 200.411 52.1053 198.782 51.2631C197.154 50.4209 195.94 49.2278 195.14 47.6838C194.34 46.1398 193.94 44.4835 193.94 42.7149ZM211.163 38.3987C211.163 36.967 210.742 35.823 209.899 34.9668C209.071 34.0965 207.997 33.6614 206.678 33.6614C205.373 33.6614 204.215 34.0684 203.204 34.8825C202.193 35.6826 201.407 36.8547 200.846 38.3987C200.284 39.9286 200.004 41.3393 200.004 42.6307C200.004 44.2308 200.439 45.5011 201.309 46.4416C202.179 47.382 203.274 47.8522 204.594 47.8522C206.25 47.8522 207.639 47.1434 208.762 45.7257C210.363 43.7185 211.163 41.2761 211.163 38.3987ZM222.244 29.6399H227.887L226.981 33.9772C229.087 30.7348 231.368 29.1136 233.824 29.1136C234.694 29.1136 235.628 29.3311 236.624 29.7663L234.308 34.7141C233.761 34.5176 233.179 34.4193 232.561 34.4193C231.522 34.4193 230.462 34.8124 229.382 35.5984C228.315 36.3844 227.48 37.4372 226.876 38.7566C226.273 40.062 225.676 42.1394 225.087 44.9888L223.613 52H217.57L222.244 29.6399ZM237.684 29.6399H243.369L242.8 32.356C245.018 30.1944 247.348 29.1136 249.79 29.1136C251.475 29.1136 252.773 29.4645 253.686 30.1663C254.598 30.8681 255.18 31.8366 255.433 33.0718C256.205 31.9489 257.314 31.0085 258.76 30.2505C260.205 29.4925 261.707 29.1136 263.265 29.1136C265.048 29.1136 266.438 29.5908 267.434 30.5453C268.431 31.4998 268.929 32.763 268.929 34.3351C268.929 35.1071 268.733 36.4406 268.34 38.3355L265.476 52H259.433L262.297 38.3355C262.648 36.6231 262.823 35.6545 262.823 35.43C262.823 34.8124 262.634 34.3281 262.255 33.9772C261.89 33.6122 261.335 33.4298 260.591 33.4298C259.09 33.4298 257.749 34.2228 256.57 35.8089C255.714 36.9459 254.984 38.9601 254.38 41.8516L252.254 52H246.211L249.032 38.4829C249.355 36.9248 249.517 35.9142 249.517 35.451C249.517 34.8615 249.313 34.3772 248.906 33.9982C248.513 33.6193 247.966 33.4298 247.264 33.4298C246.604 33.4298 245.923 33.6263 245.222 34.0193C244.52 34.4123 243.902 34.9527 243.369 35.6405C242.849 36.3283 242.4 37.2126 242.021 38.2934C241.853 38.7987 241.579 39.9427 241.2 41.7253L239.052 52H233.01L237.684 29.6399ZM291.822 42.6938H276.663C276.649 42.9324 276.642 43.1149 276.642 43.2413C276.642 44.7291 277.063 45.9292 277.905 46.8416C278.761 47.754 279.8 48.2102 281.021 48.2102C283.028 48.2102 284.594 47.1715 285.716 45.0941L291.127 45.9994C290.075 48.1751 288.664 49.8103 286.895 50.9052C285.141 51.986 283.169 52.5264 280.979 52.5264C277.975 52.5264 275.533 51.5789 273.652 49.684C271.771 47.775 270.831 45.2555 270.831 42.1254C270.831 39.0654 271.68 36.3423 273.378 33.9561C275.694 30.7277 279 29.1136 283.295 29.1136C286.032 29.1136 288.208 29.9628 289.822 31.6612C291.436 33.3455 292.243 35.7107 292.243 38.7566C292.243 40.2164 292.103 41.5288 291.822 42.6938ZM286.727 39.0093C286.741 38.7426 286.748 38.539 286.748 38.3987C286.748 36.7424 286.376 35.5001 285.632 34.672C284.888 33.8438 283.892 33.4298 282.642 33.4298C281.393 33.4298 280.27 33.9 279.274 34.8404C278.291 35.7809 277.624 37.1705 277.273 39.0093H286.727ZM296.882 29.6399H302.525L301.619 33.9772C303.725 30.7348 306.006 29.1136 308.462 29.1136C309.332 29.1136 310.266 29.3311 311.262 29.7663L308.946 34.7141C308.399 34.5176 307.817 34.4193 307.199 34.4193C306.16 34.4193 305.1 34.8124 304.02 35.5984C302.953 36.3844 302.118 37.4372 301.514 38.7566C300.911 40.062 300.314 42.1394 299.725 44.9888L298.251 52H292.208L296.882 29.6399Z" fill="#AC6675"/>
<path id="divider" d="M23.2082 78H491.792" stroke="#AC6675" stroke-miterlimit="10"/>
<path id="release" d="M378.5 167.678L378.5 165.693L387.293 165.693L387.293 167.486L385.195 167.486C386.013 167.742 386.611 168.093 386.988 168.54C387.366 168.986 387.554 169.445 387.554 169.915C387.554 169.979 387.551 170.066 387.545 170.176L385.413 170.176C385.413 169.166 385.09 168.496 384.446 168.165C383.802 167.84 383.178 167.678 382.574 167.678L378.5 167.678ZM381.303 177.202L381.06 178.995C380.264 178.763 379.609 178.311 379.092 177.637C378.575 176.964 378.317 176.12 378.317 175.104C378.317 173.885 378.726 172.904 379.545 172.161C380.363 171.418 381.472 171.047 382.87 171.047C384.199 171.047 385.299 171.421 386.17 172.17C387.041 172.919 387.476 173.934 387.476 175.217C387.476 176.471 387.046 177.44 386.187 178.125C385.328 178.81 384.226 179.152 382.879 179.152L382.653 179.143L382.653 173.11C382.055 173.11 381.576 173.165 381.216 173.276C380.856 173.392 380.543 173.618 380.276 173.955C380.009 174.291 379.876 174.712 379.876 175.217C379.876 176.198 380.351 176.86 381.303 177.202ZM383.933 177.08C384.565 177.074 385.082 176.883 385.482 176.505C385.883 176.134 386.083 175.673 386.083 175.121C386.083 174.576 385.894 174.12 385.517 173.754C385.146 173.389 384.617 173.174 383.933 173.11L383.933 177.08ZM378.5 182.939L378.5 180.954L390.384 180.954L390.384 182.939L378.5 182.939ZM381.303 190.923L381.06 192.716C380.264 192.484 379.609 192.031 379.092 191.358C378.575 190.685 378.317 189.84 378.317 188.824C378.317 187.606 378.726 186.625 379.545 185.882C380.363 185.139 381.472 184.767 382.87 184.767C384.199 184.767 385.299 185.142 386.17 185.89C387.041 186.639 387.476 187.655 387.476 188.938C387.476 190.191 387.046 191.16 386.187 191.845C385.328 192.53 384.226 192.873 382.879 192.873L382.653 192.864L382.653 186.831C382.055 186.831 381.576 186.886 381.216 186.996C380.856 187.112 380.543 187.339 380.276 187.675C380.009 188.012 379.876 188.433 379.876 188.938C379.876 189.918 380.351 190.58 381.303 190.923ZM383.933 190.801C384.565 190.795 385.082 190.603 385.482 190.226C385.883 189.855 386.083 189.393 386.083 188.842C386.083 188.296 385.894 187.841 385.517 187.475C385.146 187.109 384.617 186.895 383.933 186.831L383.933 190.801ZM378.5 202.205L378.5 200.316C379.034 200.148 379.626 200.046 380.276 200.011C378.97 199.483 378.317 198.491 378.317 197.034C378.317 196.158 378.573 195.452 379.083 194.919C379.6 194.39 380.247 194.126 381.025 194.126C383.044 194.126 384.054 195.899 384.054 199.446C384.054 199.585 384.051 199.774 384.046 200.012L384.707 200.012C385.619 200.012 386.074 199.39 386.074 198.148C386.074 196.941 385.619 196.256 384.707 196.094L384.96 194.405C385.691 194.498 386.292 194.875 386.762 195.537C387.238 196.198 387.476 197.156 387.476 198.41C387.476 199.089 387.418 199.643 387.302 200.072C387.191 200.502 387 200.865 386.727 201.161C386.46 201.457 386.167 201.66 385.848 201.77C385.534 201.886 385 201.944 384.246 201.944L380.276 201.944C379.701 201.944 379.109 202.031 378.5 202.205ZM382.975 200.012C382.975 197.446 382.363 196.163 381.138 196.163C380.772 196.163 380.459 196.291 380.198 196.547C379.942 196.808 379.815 197.199 379.815 197.722C379.815 198.476 380.053 199.045 380.528 199.428C381.01 199.817 381.556 200.011 382.165 200.012L382.975 200.012ZM380.52 203.259L380.877 205.122C380.163 205.406 379.806 206.033 379.806 207.002C379.806 208.233 380.169 208.848 380.894 208.848C381.126 208.848 381.318 208.752 381.469 208.561C381.62 208.369 381.721 208.143 381.773 207.882L382.078 206.28C382.421 204.504 383.288 203.616 384.681 203.616C385.459 203.616 386.118 203.897 386.657 204.46C387.203 205.023 387.476 205.862 387.476 206.976C387.476 208.834 386.794 209.968 385.43 210.38L385.073 208.613C385.735 208.427 386.065 207.899 386.065 207.028C386.065 205.972 385.735 205.444 385.073 205.444C384.614 205.444 384.298 205.871 384.124 206.724L383.732 208.613C383.43 210.081 382.589 210.816 381.208 210.816C380.238 210.816 379.513 210.438 379.031 209.684C378.555 208.929 378.317 208.033 378.317 206.994C378.317 206.094 378.497 205.299 378.857 204.608C379.223 203.918 379.777 203.468 380.52 203.259ZM381.303 218.015L381.06 219.809C380.264 219.577 379.609 219.124 379.092 218.451C378.575 217.777 378.317 216.933 378.317 215.917C378.317 214.698 378.726 213.718 379.545 212.975C380.363 212.232 381.472 211.86 382.87 211.86C384.199 211.86 385.299 212.235 386.17 212.983C387.041 213.732 387.476 214.748 387.476 216.03C387.476 217.284 387.046 218.253 386.187 218.938C385.328 219.623 384.226 219.965 382.879 219.965L382.653 219.957L382.653 213.924C382.055 213.924 381.576 213.979 381.216 214.089C380.856 214.205 380.543 214.431 380.276 214.768C380.009 215.105 379.876 215.525 379.876 216.03C379.876 217.011 380.351 217.673 381.303 218.015ZM383.932 217.893C384.565 217.888 385.082 217.696 385.482 217.319C385.883 216.947 386.083 216.486 386.083 215.935C386.083 215.389 385.894 214.933 385.517 214.568C385.146 214.202 384.617 213.987 383.932 213.924L383.932 217.893Z" fill="#AC6675"/>
<g id="modeSelector" clip-path="url(#clip1_3_2)">
<g id="Vector">
<path d="M506 196C506 241.287 469.287 278 424 278C378.713 278 342 241.287 342 196C342 150.713 378.713 114 424 114C469.287 114 506 150.713 506 196Z" fill="#AC6675"/>
<path d="M292 79H424V312H292V79Z" fill="#DA8497"/>
</g>
<line id="Line 1" x1="425.5" y1="114" x2="425.5" y2="189" stroke="#DA8497" stroke-opacity="0.43" stroke-width="3"/>
<line id="Line 2" x1="425.5" y1="203" x2="425.5" y2="278" stroke="#DA8497" stroke-opacity="0.43" stroke-width="3"/>
<line id="Line 3" x1="430.192" y1="200.071" x2="497.937" y2="239.183" stroke="#DA8497" stroke-width="3"/>
<line id="Line 4" x1="430.08" y1="192.189" x2="498.307" y2="152.799" stroke="#DA8497" stroke-width="3"/>
<path id="Arrow 1" d="M424 108.226L418.226 114L424 119.774L429.774 114L424 108.226ZM425 189V114H423V189H425Z" fill="#7E4D58"/>
<circle id="Ellipse 2" cx="424" cy="196" r="8" fill="#DA8497"/>
<path id="1" d="M434.786 124H429.684V123.019H431.69V118.81C431.023 119.392 430.416 119.793 429.869 120.011V118.81C430.426 118.598 430.774 118.448 430.914 118.36C431.054 118.269 431.259 118.103 431.529 117.862C431.799 117.618 431.99 117.397 432.101 117.198H432.901V123.019H434.786V124Z" fill="#DA8497"/>
<path id="2" d="M495.332 167.96V169H490.42V167.833L492.461 166.476C493.096 166.052 493.522 165.678 493.74 165.353C493.958 165.024 494.067 164.723 494.067 164.449C494.067 164.12 493.958 163.844 493.74 163.619C493.522 163.395 493.239 163.282 492.891 163.282C492.129 163.282 491.691 163.746 491.577 164.674L490.42 164.386C490.508 163.793 490.77 163.287 491.206 162.867C491.646 162.444 492.22 162.232 492.93 162.232C493.665 162.232 494.253 162.442 494.692 162.862C495.132 163.279 495.352 163.81 495.352 164.454C495.352 165.024 495.156 165.533 494.766 165.982C494.375 166.428 493.407 167.088 491.86 167.96H495.332Z" fill="#DA8497"/>
<path id="3" d="M484.104 241.056V240.108H484.715C485.079 240.108 485.384 240.027 485.628 239.864C485.872 239.701 485.994 239.459 485.994 239.137C485.994 238.821 485.89 238.583 485.682 238.424C485.477 238.264 485.211 238.185 484.886 238.185C484.228 238.185 483.781 238.507 483.543 239.151L482.444 238.961C482.568 238.453 482.853 238.038 483.299 237.716C483.748 237.394 484.288 237.232 484.92 237.232C485.548 237.232 486.084 237.395 486.526 237.721C486.972 238.043 487.195 238.476 487.195 239.02C487.195 239.423 487.075 239.768 486.834 240.055C486.596 240.341 486.302 240.497 485.95 240.523C486.386 240.589 486.736 240.769 487 241.065C487.267 241.362 487.4 241.718 487.4 242.135C487.4 242.708 487.169 243.18 486.707 243.551C486.248 243.919 485.636 244.103 484.871 244.103C484.165 244.103 483.58 243.924 483.118 243.565C482.659 243.204 482.369 242.791 482.249 242.325L483.387 242.047C483.615 242.789 484.106 243.16 484.861 243.16C485.252 243.16 485.566 243.061 485.804 242.862C486.045 242.66 486.165 242.418 486.165 242.135C486.165 241.848 486.061 241.598 485.853 241.383C485.647 241.165 485.337 241.056 484.92 241.056H484.104Z" fill="#DA8497"/>
<path id="4" d="M433.531 273H432.296V271.486H429.337V270.607L432.296 266.198H433.531V270.461H434.532V271.486H433.531V273ZM432.384 267.453L430.494 270.461H432.296V268.62C432.296 268.425 432.306 268.249 432.325 268.093L432.384 267.453Z" fill="#DA8497"/>
<path id="mode select" d="M414 226.679L414 228.759L408.524 228.759C407.386 228.759 406.818 229.264 406.818 230.274C406.818 230.86 407.032 231.331 407.462 231.685C407.891 232.033 408.533 232.207 409.386 232.207L414 232.207L414 234.314L408.524 234.314C407.369 234.314 406.791 234.787 406.791 235.733C406.791 236.308 407.024 236.792 407.488 237.187C407.952 237.576 408.585 237.77 409.386 237.77L414 237.77L414 239.816L405.207 239.816L405.207 237.892L407.079 237.892C405.709 237.265 405.024 236.287 405.024 234.958C405.024 233.664 405.709 232.822 407.079 232.433C405.709 231.725 405.024 230.747 405.024 229.499C405.024 228.652 405.288 227.97 405.816 227.454C406.345 226.937 407 226.679 407.784 226.679L414 226.679ZM414.183 220.854C414.183 222.155 413.716 223.147 412.781 223.832C411.847 224.517 410.776 224.859 409.569 224.859C408.269 224.859 407.186 224.482 406.321 223.727C405.457 222.967 405.024 221.966 405.024 220.724C405.024 219.546 405.445 218.579 406.287 217.825C407.128 217.064 408.222 216.684 409.569 216.684C410.956 216.684 412.073 217.079 412.92 217.868C413.762 218.652 414.183 219.647 414.183 220.854ZM412.546 220.785C412.546 219.45 411.551 218.782 409.56 218.782C408.66 218.782 407.952 218.942 407.436 219.261C406.913 219.581 406.652 220.071 406.652 220.733C406.652 221.417 406.922 221.925 407.462 222.256C407.996 222.587 408.707 222.752 409.595 222.752C410.552 222.752 411.284 222.578 411.789 222.23C412.294 221.876 412.546 221.394 412.546 220.785ZM414 207.63L414 209.485L412.224 209.485C413.53 209.995 414.183 210.86 414.183 212.079C414.183 213.158 413.733 213.985 412.833 214.56C411.934 215.135 410.817 215.422 409.482 215.422C408.24 215.422 407.157 215.123 406.234 214.525C405.311 213.927 404.85 213.077 404.85 211.974C404.85 210.843 405.367 210.056 406.4 209.615L402.116 209.615L402.116 207.63L414 207.63ZM408.811 209.615C408.097 209.615 407.543 209.786 407.148 210.129C406.748 210.465 406.548 210.904 406.548 211.443C406.548 212.03 406.803 212.488 407.314 212.819C407.825 213.15 408.588 213.315 409.604 213.315C411.565 213.315 412.546 212.7 412.546 211.469C412.546 210.982 412.337 210.552 411.919 210.181C411.496 209.804 410.956 209.615 410.3 209.615L408.811 209.615ZM411.197 199.656L411.44 197.862C412.236 198.094 412.891 198.547 413.408 199.22C413.925 199.893 414.183 200.738 414.183 201.754C414.183 202.972 413.774 203.953 412.955 204.696C412.137 205.439 411.028 205.811 409.63 205.811C408.301 205.811 407.201 205.436 406.33 204.688C405.459 203.939 405.024 202.923 405.024 201.64C405.024 200.387 405.454 199.418 406.313 198.733C407.172 198.048 408.274 197.705 409.621 197.705L409.847 197.714L409.847 203.747C410.445 203.747 410.924 203.692 411.284 203.582C411.644 203.466 411.957 203.239 412.224 202.903C412.491 202.566 412.624 202.145 412.624 201.64C412.624 200.66 412.149 199.998 411.197 199.656ZM408.567 199.777C407.935 199.783 407.418 199.975 407.018 200.352C406.617 200.723 406.417 201.185 406.417 201.736C406.417 202.282 406.606 202.737 406.983 203.103C407.354 203.469 407.883 203.683 408.567 203.747L408.567 199.777ZM411.98 192.508L411.623 190.645C412.337 190.36 412.694 189.734 412.694 188.764C412.694 187.534 412.331 186.919 411.606 186.919C411.374 186.919 411.182 187.015 411.031 187.206C410.88 187.398 410.779 187.624 410.727 187.885L410.422 189.487C410.079 191.263 409.212 192.151 407.819 192.151C407.041 192.151 406.382 191.87 405.843 191.307C405.297 190.744 405.024 189.905 405.024 188.791C405.024 186.933 405.706 185.799 407.07 185.387L407.427 187.154C406.765 187.34 406.435 187.868 406.435 188.738C406.435 189.795 406.765 190.323 407.427 190.323C407.886 190.323 408.202 189.896 408.376 189.043L408.768 187.154C409.07 185.685 409.911 184.951 411.292 184.951C412.262 184.951 412.987 185.328 413.469 186.083C413.945 186.837 414.183 187.734 414.183 188.773C414.183 189.673 414.003 190.468 413.643 191.159C413.277 191.849 412.723 192.299 411.98 192.508ZM411.197 177.751L411.44 175.958C412.236 176.19 412.891 176.643 413.408 177.316C413.925 177.989 414.183 178.834 414.183 179.85C414.183 181.068 413.774 182.049 412.955 182.792C412.137 183.535 411.028 183.906 409.63 183.906C408.301 183.906 407.201 183.532 406.33 182.783C405.459 182.035 405.024 181.019 405.024 179.736C405.024 178.483 405.454 177.513 406.313 176.829C407.172 176.144 408.274 175.801 409.621 175.801L409.847 175.81L409.847 181.843C410.445 181.843 410.924 181.788 411.284 181.678C411.644 181.562 411.957 181.335 412.224 180.999C412.491 180.662 412.624 180.241 412.624 179.736C412.624 178.755 412.149 178.094 411.197 177.751ZM408.567 177.873C407.935 177.879 407.418 178.071 407.018 178.448C406.617 178.819 406.417 179.281 406.417 179.832C406.417 180.378 406.606 180.833 406.983 181.199C407.354 181.565 407.883 181.779 408.567 181.843L408.567 177.873ZM414 172.014L414 173.999L402.116 173.999L402.116 172.014L414 172.014ZM411.197 164.031L411.44 162.237C412.236 162.47 412.891 162.922 413.408 163.596C413.925 164.269 414.183 165.113 414.183 166.129C414.183 167.348 413.774 168.329 412.955 169.072C412.137 169.814 411.028 170.186 409.63 170.186C408.301 170.186 407.201 169.812 406.33 169.063C405.459 168.314 405.024 167.298 405.024 166.016C405.024 164.762 405.454 163.793 406.313 163.108C407.172 162.423 408.274 162.081 409.621 162.081L409.847 162.089L409.847 168.123C410.445 168.123 410.924 168.067 411.284 167.957C411.644 167.841 411.957 167.615 412.224 167.278C412.491 166.942 412.624 166.521 412.624 166.016C412.624 165.035 412.149 164.373 411.197 164.031ZM408.567 164.153C407.935 164.159 407.418 164.35 407.018 164.727C406.617 165.099 406.417 165.56 406.417 166.112C406.417 166.657 406.606 167.113 406.983 167.478C407.354 167.844 407.883 168.059 408.567 168.123L408.567 164.153ZM410.77 155.194L410.944 153.488C412.047 153.709 412.862 154.135 413.391 154.768C413.919 155.4 414.183 156.164 414.183 157.057C414.183 158.27 413.742 159.205 412.86 159.861C411.972 160.511 410.886 160.836 409.604 160.836C408.28 160.836 407.186 160.479 406.321 159.765C405.457 159.051 405.024 158.099 405.024 156.909C405.024 154.994 406.034 153.854 408.054 153.488L408.289 155.194C407.198 155.345 406.652 155.882 406.652 156.805C406.652 157.478 406.948 157.969 407.54 158.276C408.126 158.578 408.837 158.729 409.673 158.729C410.561 158.729 411.246 158.572 411.728 158.259C412.209 157.94 412.45 157.496 412.45 156.927C412.45 156.056 411.89 155.479 410.77 155.194ZM412.45 147.89L414 147.89C414.128 148.482 414.192 148.941 414.192 149.266C414.192 149.8 414.087 150.258 413.878 150.641C413.663 151.024 413.373 151.306 413.008 151.486C412.636 151.66 412.067 151.747 411.301 151.747L406.748 151.747L406.748 152.844L405.207 152.844L405.207 151.634L402.917 151.451L402.769 149.823L405.207 149.823L405.207 148.055L406.748 148.055L406.748 149.823L411.04 149.823C411.591 149.823 411.969 149.724 412.172 149.527C412.369 149.324 412.468 148.943 412.468 148.386C412.468 148.23 412.462 148.064 412.45 147.89Z" fill="#AC6675"/>
</g>
<rect id="::rotarySlider #modeSelector" x="402" y="79" width="113" height="233" fill="#C4C4C4"/>
<rect id="polyModuleArea" x="23" y="90" width="310" height="213" fill="#C4C4C4"/>
</g>
<defs>
<clipPath id="clip0_3_2">
<rect width="515" height="319" fill="white"/>
</clipPath>
<clipPath id="clip1_3_2">
<rect width="113" height="233" fill="white" transform="translate(402 79)"/>
</clipPath>
</defs>
</svg>
