<svg width="42" height="42" viewBox="0 0 42 42" fill="none" xmlns="http://www.w3.org/2000/svg">
<g id="noteSelector">
<rect id="::Label #noteDisplay" width="42" height="42" fill="#DA8497" fill-opacity="0.01"/>
<g id="Group">
<g id="Group_2" style="mix-blend-mode:multiply" opacity="0.25">
<g id="Vector" style="mix-blend-mode:multiply" opacity="0.25">
<path d="M33.45 1H9.55C4.82797 1 1 4.82796 1 9.55V33.45C1 38.172 4.82797 42 9.55 42H33.45C38.172 42 42 38.172 42 33.45V9.55C42 4.82796 38.172 1 33.45 1Z" fill="black"/>
</g>
</g>
<path id="Vector_2" d="M32.45 0H8.55C3.82797 0 0 3.82796 0 8.55V32.45C0 37.172 3.82797 41 8.55 41H32.45C37.172 41 41 37.172 41 32.45V8.55C41 3.82796 37.172 0 32.45 0Z" fill="#AC6675"/>
</g>
<g id="::ignore Group">
<g id="Group_3" style="mix-blend-mode:multiply" opacity="0.25">
<g id="C# 1" style="mix-blend-mode:multiply" opacity="0.25">
<path d="M10.5285 22.8634L12.5135 23.081C12.3858 24.2709 11.9244 25.2517 11.1292 26.0236C10.3399 26.7898 9.30098 27.1728 8.0125 27.1728C6.92716 27.1728 6.04496 26.9 5.3659 26.3545C4.69264 25.8089 4.17319 25.0689 3.80754 24.1345C3.44189 23.2 3.25906 22.1698 3.25906 21.0439C3.25906 19.233 3.68856 17.7617 4.54754 16.6299C5.40653 15.4924 6.58763 14.9236 8.09086 14.9236C9.26906 14.9236 10.2499 15.2863 11.0335 16.0118C11.817 16.7373 12.3103 17.7762 12.5135 19.1285L10.5285 19.3375C10.1629 17.5441 9.35612 16.6474 8.10827 16.6474C7.30732 16.6474 6.6834 17.0217 6.23649 17.7704C5.79539 18.5133 5.57484 19.5929 5.57484 21.009C5.57484 22.4484 5.8128 23.5367 6.28873 24.2738C6.76465 25.0051 7.39438 25.3707 8.17792 25.3707C8.80474 25.3707 9.33871 25.124 9.77981 24.6307C10.2209 24.1374 10.4705 23.5483 10.5285 22.8634ZM22.9258 18.3363L22.6298 20.0166H20.8973L20.5752 21.8361H22.3076L22.0116 23.5163H20.2705L19.6523 26.99H18.033L18.6512 23.5163H16.762L16.1438 26.99H14.5071L15.1253 23.4989H13.3405L13.6365 21.8361H15.4474L15.7695 20.0166H13.9587L14.2634 18.3363H16.0655L16.6401 15.1064H18.2594L17.6848 18.3363H19.5566L20.1312 15.1064H21.7505L21.1672 18.3363H22.9258ZM19.2606 20.0166H17.3801L17.0667 21.8361H18.9384L19.2606 20.0166ZM38.1437 26.99H29.046V25.2401H32.6242V17.7356C31.4344 18.7745 30.3519 19.4884 29.3769 19.8773V17.7356C30.3693 17.3583 30.9904 17.0914 31.2399 16.9347C31.4895 16.7721 31.8552 16.4761 32.3369 16.0466C32.8186 15.6114 33.1581 15.2167 33.3555 14.8626H34.7832V25.2401H38.1437V26.99Z" fill="black"/>
</g>
</g>
<path id="C# 1_2" d="M10.0285 22.3634L12.0135 22.581C11.8858 23.7709 11.4244 24.7517 10.6292 25.5236C9.83989 26.2898 8.80098 26.6728 7.5125 26.6728C6.42716 26.6728 5.54496 26.4 4.8659 25.8545C4.19264 25.3089 3.67319 24.5689 3.30754 23.6345C2.94189 22.7 2.75906 21.6698 2.75906 20.5439C2.75906 18.733 3.18856 17.2617 4.04754 16.1299C4.90653 14.9924 6.08763 14.4236 7.59086 14.4236C8.76906 14.4236 9.74993 14.7863 10.5335 15.5118C11.317 16.2373 11.8103 17.2762 12.0135 18.6285L10.0285 18.8375C9.66287 17.0441 8.85612 16.1474 7.60827 16.1474C6.80732 16.1474 6.1834 16.5217 5.73649 17.2704C5.29539 18.0133 5.07484 19.0929 5.07484 20.509C5.07484 21.9484 5.3128 23.0367 5.78873 23.7738C6.26465 24.5051 6.89438 24.8707 7.67792 24.8707C8.30474 24.8707 8.83871 24.624 9.27981 24.1307C9.72091 23.6374 9.97048 23.0483 10.0285 22.3634ZM22.4258 17.8363L22.1298 19.5166H20.3973L20.0752 21.3361H21.8076L21.5116 23.0163H19.7705L19.1523 26.49H17.533L18.1512 23.0163H16.262L15.6438 26.49H14.0071L14.6253 22.9989H12.8405L13.1365 21.3361H14.9474L15.2695 19.5166H13.4587L13.7634 17.8363H15.5655L16.1401 14.6064H17.7594L17.1848 17.8363H19.0566L19.6312 14.6064H21.2505L20.6672 17.8363H22.4258ZM18.7606 19.5166H16.8801L16.5667 21.3361H18.4384L18.7606 19.5166ZM37.6437 26.49H28.546V24.7401H32.1242V17.2356C30.9344 18.2745 29.8519 18.9884 28.8769 19.3773V17.2356C29.8693 16.8583 30.4904 16.5914 30.7399 16.4347C30.9895 16.2721 31.3552 15.9761 31.8369 15.5466C32.3186 15.1114 32.6581 14.7167 32.8555 14.3626H34.2832V24.7401H37.6437V26.49Z" fill="#DA8497"/>
</g>
</g>
</svg>
