<svg width="48" height="48" viewBox="0 0 48 48" fill="none" xmlns="http://www.w3.org/2000/svg">
<g id="OnOffButton">
<g id="::state #toggleOff">
<g id="Group">
<g id="toggle off">
<g id="&#60;Group&#62;">
<g id="Group_2" style="mix-blend-mode:multiply" opacity="0.25">
<g id="Vector" style="mix-blend-mode:multiply" opacity="0.25">
<path d="M24.5 35.25C30.4371 35.25 35.25 30.4371 35.25 24.5C35.25 18.5629 30.4371 13.75 24.5 13.75C18.5629 13.75 13.75 18.5629 13.75 24.5C13.75 30.4371 18.5629 35.25 24.5 35.25Z" stroke="black" stroke-width="3" stroke-miterlimit="10"/>
</g>
</g>
<path id="Vector_2" d="M23.5 34.25C29.4371 34.25 34.25 29.4371 34.25 23.5C34.25 17.5629 29.4371 12.75 23.5 12.75C17.5629 12.75 12.75 17.5629 12.75 23.5C12.75 29.4371 17.5629 34.25 23.5 34.25Z" stroke="#AC6675" stroke-width="3" stroke-miterlimit="10"/>
</g>
</g>
</g>
</g>
<g id="::state #toggleHover">
<g id="toggleHover">
<g id="toggle hover">
<path id="&#60;Path&#62;" opacity="0.43" d="M23.9889 34.8091C29.9647 34.8091 34.8091 29.9647 34.8091 23.9889C34.8091 18.013 29.9647 13.1687 23.9889 13.1687C18.013 13.1687 13.1687 18.013 13.1687 23.9889C13.1687 29.9647 18.013 34.8091 23.9889 34.8091Z" fill="#AC6675"/>
<g id="&#60;Group&#62;_2">
<path id="Vector_3" d="M23.9889 34.9778C30.0579 34.9778 34.9778 30.0579 34.9778 23.9889C34.9778 17.9199 30.0579 13 23.9889 13C17.9199 13 13 17.9199 13 23.9889C13 30.0579 17.9199 34.9778 23.9889 34.9778Z" stroke="#AC6675" stroke-width="3" stroke-miterlimit="10"/>
</g>
</g>
</g>
</g>
<g id="::state #toggleOn">
<g id="g">
<g id="toggle on clicked">
<path id="&#60;Path&#62;_2" d="M23.5 34.085C29.3459 34.085 34.085 29.3459 34.085 23.5C34.085 17.6541 29.3459 12.915 23.5 12.915C17.6541 12.915 12.915 17.6541 12.915 23.5C12.915 29.3459 17.6541 34.085 23.5 34.085Z" fill="#AC6675"/>
<g id="&#60;Group&#62;_3">
<g id="GROUP">
<path id="myVect" d="M24.5 35.25C30.4371 35.25 35.25 30.4371 35.25 24.5C35.25 18.5629 30.4371 13.75 24.5 13.75C18.5629 13.75 13.75 18.5629 13.75 24.5C13.75 30.4371 18.5629 35.25 24.5 35.25Z" fill="#DA8497" fill-opacity="0.41" stroke="#DA8497" stroke-opacity="0.41" stroke-width="3" stroke-miterlimit="10"/>
</g>
<path id="Vector_4" d="M23.5 34.25C29.4371 34.25 34.25 29.4371 34.25 23.5C34.25 17.5629 29.4371 12.75 23.5 12.75C17.5629 12.75 12.75 17.5629 12.75 23.5C12.75 29.4371 17.5629 34.25 23.5 34.25Z" stroke="#AC6675" stroke-width="3" stroke-miterlimit="10"/>
</g>
</g>
</g>
</g>
<g id="::state #toggleOnClicked">
<g id="Group_3">
<g id="toggle on">
<g id="&#60;Group&#62;_4">
<g id="Group_4" style="mix-blend-mode:multiply" opacity="0.25">
<g id="Vector_5" style="mix-blend-mode:multiply" opacity="0.25">
<path d="M24.5 35.25C30.4371 35.25 35.25 30.4371 35.25 24.5C35.25 18.5629 30.4371 13.75 24.5 13.75C18.5629 13.75 13.75 18.5629 13.75 24.5C13.75 30.4371 18.5629 35.25 24.5 35.25Z" stroke="#AC6675" stroke-width="3" stroke-miterlimit="10"/>
</g>
</g>
<path id="Vector_6" d="M23.5 34.25C29.4371 34.25 34.25 29.4371 34.25 23.5C34.25 17.5629 29.4371 12.75 23.5 12.75C17.5629 12.75 12.75 17.5629 12.75 23.5C12.75 29.4371 17.5629 34.25 23.5 34.25Z" stroke="#AC6675" stroke-width="3" stroke-miterlimit="10"/>
</g>
<path id="&#60;Path&#62;_3" d="M23.5 34.085C29.3459 34.085 34.085 29.3459 34.085 23.5C34.085 17.6541 29.3459 12.915 23.5 12.915C17.6541 12.915 12.915 17.6541 12.915 23.5C12.915 29.3459 17.6541 34.085 23.5 34.085Z" fill="#AC6675"/>
</g>
</g>
</g>
</g>
</svg>
