<svg width="48" height="48" viewBox="0 0 48 48" fill="none" xmlns="http://www.w3.org/2000/svg">
<g id="OnOffButton">
<g id="::state #toggleOff">
<g id="Group">
<g id="toggle off">
<g id="&#60;Group&#62;">
<path id="Vector" d="M23.5 34.25C29.4371 34.25 34.25 29.4371 34.25 23.5C34.25 17.5629 29.4371 12.75 23.5 12.75C17.5629 12.75 12.75 17.5629 12.75 23.5C12.75 29.4371 17.5629 34.25 23.5 34.25Z" stroke="#AC6675" stroke-width="3" stroke-miterlimit="10"/>
</g>
</g>
</g>
</g>
<g id="::state #toggleOffHover">
<g id="Group_2">
<g id="toggle off_2">
<g id="&#60;Group&#62;_2">
<path id="Vector_2" d="M23.5 34.25C29.4371 34.25 34.25 29.4371 34.25 23.5C34.25 17.5629 29.4371 12.75 23.5 12.75C17.5629 12.75 12.75 17.5629 12.75 23.5C12.75 29.4371 17.5629 34.25 23.5 34.25Z" fill="#DA8497" stroke="#AC6675" stroke-width="3" stroke-miterlimit="10"/>
</g>
</g>
</g>
<circle id="Ellipse 5" cx="23.5" cy="23.5" r="2.5" fill="#AC6675"/>
</g>
<g id="::state #toggleOnHover">
<g id="Group_3">
<g id="toggle off_3">
<g id="&#60;Group&#62;_3">
<path id="Vector_3" d="M23.5 34.25C29.4371 34.25 34.25 29.4371 34.25 23.5C34.25 17.5629 29.4371 12.75 23.5 12.75C17.5629 12.75 12.75 17.5629 12.75 23.5C12.75 29.4371 17.5629 34.25 23.5 34.25Z" fill="#AC6675" stroke="#AC6675" stroke-width="3" stroke-miterlimit="10"/>
</g>
<g id="&#60;Group&#62;_4">
<path id="Vector_4" d="M23.6444 31.2889C27.8664 31.2889 31.2889 27.8664 31.2889 23.6444C31.2889 19.4225 27.8664 16 23.6444 16C19.4225 16 16 19.4225 16 23.6444C16 27.8664 19.4225 31.2889 23.6444 31.2889Z" stroke="#DA8497" stroke-width="2" stroke-miterlimit="10"/>
</g>
</g>
</g>
</g>
<g id="::state #toggleOn">
<g id="Group_4">
<g id="toggle off_4">
<g id="&#60;Group&#62;_5">
<path id="Vector_5" d="M23.5 34.25C29.4371 34.25 34.25 29.4371 34.25 23.5C34.25 17.5629 29.4371 12.75 23.5 12.75C17.5629 12.75 12.75 17.5629 12.75 23.5C12.75 29.4371 17.5629 34.25 23.5 34.25Z" fill="#AC6675" stroke="#AC6675" stroke-width="3" stroke-miterlimit="10"/>
</g>
<g id="&#60;Group&#62;_6">
<path id="Vector_6" d="M23.6444 31.2889C27.8664 31.2889 31.2889 27.8664 31.2889 23.6444C31.2889 19.4225 27.8664 16 23.6444 16C19.4225 16 16 19.4225 16 23.6444C16 27.8664 19.4225 31.2889 23.6444 31.2889Z" fill="#AC6675" stroke="#DA8497" stroke-miterlimit="10"/>
</g>
</g>
</g>
</g>
</g>
</svg>
