<svg width="349" height="48" viewBox="0 0 349 48" fill="none" xmlns="http://www.w3.org/2000/svg">
<g id="polyModule">
<g id="sustainSlider">
<path id="Ellipse 3" d="M342.25 38.1913C344.824 36.7054 346.835 34.4118 347.972 31.6662C349.11 28.9206 349.309 25.8765 348.54 23.0059C347.771 20.1354 346.076 17.5989 343.718 15.7897C341.361 13.9806 338.472 13 335.5 13C332.528 13 329.639 13.9806 327.282 15.7897C324.924 17.5989 323.229 20.1354 322.46 23.0059C321.691 25.8765 321.89 28.9206 323.028 31.6662C324.165 34.4118 326.176 36.7054 328.75 38.1913L335.5 26.5L342.25 38.1913Z" fill="#AC6675"/>
<path id="Ellipse 4" d="M340.75 35.5933C342.752 34.4376 344.316 32.6536 345.201 30.5182C346.085 28.3827 346.24 26.015 345.642 23.7824C345.044 21.5497 343.726 19.5769 341.892 18.1698C340.058 16.7627 337.811 16 335.5 16C333.189 16 330.942 16.7627 329.108 18.1698C327.274 19.5769 325.956 21.5498 325.358 23.7824C324.76 26.0151 324.915 28.3827 325.799 30.5182C326.684 32.6536 328.248 34.4376 330.25 35.5933L335.5 26.5L340.75 35.5933Z" fill="#DA8497"/>
<rect id="Rectangle 4" x="333.5" y="8.5" width="4" height="12" rx="2" fill="#DA8497" stroke="#AC6675"/>
</g>
<rect id="::rotarySlider #sustainSlider" x="322" y="8" width="27" height="32" fill="#C4C4C4"/>
<g id="noteSelector">
<g id="Group">
<g id="Group_2" style="mix-blend-mode:multiply" opacity="0.25">
<g id="Vector" style="mix-blend-mode:multiply" opacity="0.25">
<path d="M82.45 4H58.55C53.828 4 50 7.82796 50 12.55V36.45C50 41.172 53.828 45 58.55 45H82.45C87.172 45 91 41.172 91 36.45V12.55C91 7.82796 87.172 4 82.45 4Z" fill="black"/>
</g>
</g>
<path id="Vector_2" d="M81.45 3H57.55C52.828 3 49 6.82796 49 11.55V35.45C49 40.172 52.828 44 57.55 44H81.45C86.172 44 90 40.172 90 35.45V11.55C90 6.82796 86.172 3 81.45 3Z" fill="#AC6675"/>
</g>
<g id="Group_3">
<g id="Group_4" style="mix-blend-mode:multiply" opacity="0.25">
<g id="C# 1" style="mix-blend-mode:multiply" opacity="0.25">
<path d="M59.5285 25.8634L61.5135 26.081C61.3858 27.2709 60.9244 28.2517 60.1292 29.0236C59.3399 29.7898 58.301 30.1728 57.0125 30.1728C55.9272 30.1728 55.045 29.9 54.3659 29.3545C53.6926 28.8089 53.1732 28.0689 52.8075 27.1345C52.4419 26.2 52.2591 25.1698 52.2591 24.0439C52.2591 22.233 52.6886 20.7617 53.5475 19.6299C54.4065 18.4924 55.5876 17.9236 57.0909 17.9236C58.2691 17.9236 59.2499 18.2863 60.0335 19.0118C60.817 19.7373 61.3103 20.7762 61.5135 22.1285L59.5285 22.3375C59.1629 20.5441 58.3561 19.6474 57.1083 19.6474C56.3073 19.6474 55.6834 20.0217 55.2365 20.7704C54.7954 21.5133 54.5748 22.5929 54.5748 24.009C54.5748 25.4484 54.8128 26.5367 55.2887 27.2738C55.7647 28.0051 56.3944 28.3707 57.1779 28.3707C57.8047 28.3707 58.3387 28.124 58.7798 27.6307C59.2209 27.1374 59.4705 26.5483 59.5285 25.8634ZM71.9258 21.3363L71.6298 23.0166H69.8973L69.5752 24.8361H71.3076L71.0116 26.5163H69.2705L68.6523 29.99H67.033L67.6512 26.5163H65.762L65.1438 29.99H63.5071L64.1253 26.4989H62.3405L62.6365 24.8361H64.4474L64.7695 23.0166H62.9587L63.2634 21.3363H65.0655L65.6401 18.1064H67.2594L66.6848 21.3363H68.5566L69.1312 18.1064H70.7505L70.1672 21.3363H71.9258ZM68.2606 23.0166H66.3801L66.0667 24.8361H67.9384L68.2606 23.0166ZM87.1437 29.99H78.046V28.2401H81.6242V20.7356C80.4344 21.7745 79.3519 22.4884 78.3769 22.8773V20.7356C79.3693 20.3583 79.9904 20.0914 80.2399 19.9347C80.4895 19.7721 80.8552 19.4761 81.3369 19.0466C81.8186 18.6114 82.1581 18.2167 82.3555 17.8626H83.7832V28.2401H87.1437V29.99Z" fill="black"/>
</g>
</g>
<path id="C# 1_2" d="M59.0285 25.3634L61.0135 25.581C60.8858 26.7709 60.4244 27.7517 59.6292 28.5236C58.8399 29.2898 57.801 29.6728 56.5125 29.6728C55.4272 29.6728 54.545 29.4 53.8659 28.8545C53.1926 28.3089 52.6732 27.5689 52.3075 26.6345C51.9419 25.7 51.7591 24.6698 51.7591 23.5439C51.7591 21.733 52.1886 20.2617 53.0475 19.1299C53.9065 17.9924 55.0876 17.4236 56.5909 17.4236C57.7691 17.4236 58.7499 17.7863 59.5335 18.5118C60.317 19.2373 60.8103 20.2762 61.0135 21.6285L59.0285 21.8375C58.6629 20.0441 57.8561 19.1474 56.6083 19.1474C55.8073 19.1474 55.1834 19.5217 54.7365 20.2704C54.2954 21.0133 54.0748 22.0929 54.0748 23.509C54.0748 24.9484 54.3128 26.0367 54.7887 26.7738C55.2647 27.5051 55.8944 27.8707 56.6779 27.8707C57.3047 27.8707 57.8387 27.624 58.2798 27.1307C58.7209 26.6374 58.9705 26.0483 59.0285 25.3634ZM71.4258 20.8363L71.1298 22.5166H69.3973L69.0752 24.3361H70.8076L70.5116 26.0163H68.7705L68.1523 29.49H66.533L67.1512 26.0163H65.262L64.6438 29.49H63.0071L63.6253 25.9989H61.8405L62.1365 24.3361H63.9474L64.2695 22.5166H62.4587L62.7634 20.8363H64.5655L65.1401 17.6064H66.7594L66.1848 20.8363H68.0566L68.6312 17.6064H70.2505L69.6672 20.8363H71.4258ZM67.7606 22.5166H65.8801L65.5667 24.3361H67.4384L67.7606 22.5166ZM86.6437 29.49H77.546V27.7401H81.1242V20.2356C79.9344 21.2745 78.8519 21.9884 77.8769 22.3773V20.2356C78.8693 19.8583 79.4904 19.5914 79.7399 19.4347C79.9895 19.2721 80.3552 18.9761 80.8369 18.5466C81.3186 18.1114 81.6581 17.7167 81.8555 17.3626H83.2832V27.7401H86.6437V29.49Z" fill="#DA8497"/>
</g>
<rect id="::Label #noteDisplay" x="49" y="3" width="42" height="42" fill="#C4C4C4"/>
</g>
<rect id="::Button #noteSelector" x="49" y="3" width="42" height="42" fill="#C4C4C4"/>
<g id="OnOffButton">
<g id="::state #toggleOff">
<g id="Group_5">
<g id="toggle off">
<g id="&#60;Group&#62;">
<g id="Group_6" style="mix-blend-mode:multiply" opacity="0.25">
<g id="Vector_3" style="mix-blend-mode:multiply" opacity="0.25">
<path d="M24.5 35.25C30.4371 35.25 35.25 30.4371 35.25 24.5C35.25 18.5629 30.4371 13.75 24.5 13.75C18.5629 13.75 13.75 18.5629 13.75 24.5C13.75 30.4371 18.5629 35.25 24.5 35.25Z" stroke="black" stroke-width="3" stroke-miterlimit="10"/>
</g>
</g>
<path id="Vector_4" d="M23.5 34.25C29.4371 34.25 34.25 29.4371 34.25 23.5C34.25 17.5629 29.4371 12.75 23.5 12.75C17.5629 12.75 12.75 17.5629 12.75 23.5C12.75 29.4371 17.5629 34.25 23.5 34.25Z" stroke="#AC6675" stroke-width="3" stroke-miterlimit="10"/>
</g>
</g>
</g>
</g>
<g id="::state #toggleHover">
<g id="toggleHover">
<g id="toggle hover">
<path id="&#60;Path&#62;" opacity="0.43" d="M23.9889 34.8091C29.9647 34.8091 34.8091 29.9647 34.8091 23.9889C34.8091 18.013 29.9647 13.1687 23.9889 13.1687C18.013 13.1687 13.1687 18.013 13.1687 23.9889C13.1687 29.9647 18.013 34.8091 23.9889 34.8091Z" fill="#AC6675"/>
<g id="&#60;Group&#62;_2">
<path id="Vector_5" d="M23.9889 34.9778C30.0579 34.9778 34.9778 30.0579 34.9778 23.9889C34.9778 17.9199 30.0579 13 23.9889 13C17.9199 13 13 17.9199 13 23.9889C13 30.0579 17.9199 34.9778 23.9889 34.9778Z" stroke="#AC6675" stroke-width="3" stroke-miterlimit="10"/>
</g>
</g>
</g>
</g>
<g id="::state #toggleOn">
<g id="g">
<g id="toggle on clicked">
<path id="&#60;Path&#62;_2" d="M23.5 34.085C29.3459 34.085 34.085 29.3459 34.085 23.5C34.085 17.6541 29.3459 12.915 23.5 12.915C17.6541 12.915 12.915 17.6541 12.915 23.5C12.915 29.3459 17.6541 34.085 23.5 34.085Z" fill="#AC6675"/>
<g id="&#60;Group&#62;_3">
<g id="GROUP">
<path id="myVect" d="M24.5 35.25C30.4371 35.25 35.25 30.4371 35.25 24.5C35.25 18.5629 30.4371 13.75 24.5 13.75C18.5629 13.75 13.75 18.5629 13.75 24.5C13.75 30.4371 18.5629 35.25 24.5 35.25Z" fill="#DA8497" fill-opacity="0.41" stroke="#DA8497" stroke-opacity="0.41" stroke-width="3" stroke-miterlimit="10"/>
</g>
<path id="Vector_6" d="M23.5 34.25C29.4371 34.25 34.25 29.4371 34.25 23.5C34.25 17.5629 29.4371 12.75 23.5 12.75C17.5629 12.75 12.75 17.5629 12.75 23.5C12.75 29.4371 17.5629 34.25 23.5 34.25Z" stroke="#AC6675" stroke-width="3" stroke-miterlimit="10"/>
</g>
</g>
</g>
</g>
<g id="::state #toggleOnClicked">
<g id="Group_7">
<g id="toggle on">
<g id="&#60;Group&#62;_4">
<g id="Group_8" style="mix-blend-mode:multiply" opacity="0.25">
<g id="Vector_7" style="mix-blend-mode:multiply" opacity="0.25">
<path d="M24.5 35.25C30.4371 35.25 35.25 30.4371 35.25 24.5C35.25 18.5629 30.4371 13.75 24.5 13.75C18.5629 13.75 13.75 18.5629 13.75 24.5C13.75 30.4371 18.5629 35.25 24.5 35.25Z" stroke="#AC6675" stroke-width="3" stroke-miterlimit="10"/>
</g>
</g>
<path id="Vector_8" d="M23.5 34.25C29.4371 34.25 34.25 29.4371 34.25 23.5C34.25 17.5629 29.4371 12.75 23.5 12.75C17.5629 12.75 12.75 17.5629 12.75 23.5C12.75 29.4371 17.5629 34.25 23.5 34.25Z" stroke="#AC6675" stroke-width="3" stroke-miterlimit="10"/>
</g>
<path id="&#60;Path&#62;_3" d="M23.5 34.085C29.3459 34.085 34.085 29.3459 34.085 23.5C34.085 17.6541 29.3459 12.915 23.5 12.915C17.6541 12.915 12.915 17.6541 12.915 23.5C12.915 29.3459 17.6541 34.085 23.5 34.085Z" fill="#AC6675"/>
</g>
</g>
</g>
</g>
<rect id="::toggleButton #OnOffButton" width="48" height="48" fill="#C4C4C4"/>
<g id="rhythmLoader">
<rect id="Rectangle 1" x="109" y="4" width="201" height="40" rx="10" fill="#AC6675"/>
<rect id="Rectangle 2" x="111" y="6" width="197" height="36" rx="10" fill="#B76E7E"/>
</g>
<rect id="::component #rhythmLoader" x="109" y="4" width="201" height="40" fill="#C4C4C4"/>
</g>
</svg>
