<svg width="47" height="32" viewBox="0 0 47 32" fill="none" xmlns="http://www.w3.org/2000/svg">
<g id="sustainSlider">
<rect id="bg" width="47" height="31" fill="#DA8497"/>
<path id="Ellipse 3" d="M30.25 30.1913C32.8237 28.7054 34.8351 26.4118 35.9724 23.6662C37.1096 20.9206 37.3092 17.8765 36.54 15.0059C35.7708 12.1354 34.076 9.59885 31.7183 7.78973C29.3606 5.98061 26.4718 5 23.5 5C20.5282 5 17.6394 5.98061 15.2817 7.78973C12.924 9.59886 11.2292 12.1354 10.46 15.0059C9.69084 17.8765 9.89036 20.9206 11.0276 23.6662C12.1649 26.4118 14.1763 28.7054 16.75 30.1913L23.5 18.5L30.25 30.1913Z" fill="#AC6675"/>
<path id="Ellipse 4" d="M28.75 27.5933C30.7517 26.4376 32.3162 24.6536 33.2007 22.5182C34.0853 20.3827 34.2405 18.015 33.6422 15.7824C33.044 13.5497 31.7258 11.5769 29.892 10.1698C28.0582 8.76269 25.8114 8 23.5 8C21.1886 8 18.9418 8.76269 17.108 10.1698C15.2742 11.5769 13.956 13.5498 13.3578 15.7824C12.7595 18.0151 12.9147 20.3827 13.7993 22.5182C14.6838 24.6536 16.2483 26.4376 18.25 27.5933L23.5 18.5L28.75 27.5933Z" fill="#DA8497"/>
<rect id="Rectangle 4" x="21.5" y="0.5" width="4" height="12" rx="2" fill="#DA8497" stroke="#AC6675"/>
</g>
</svg>
