<svg width="27" height="32" viewBox="0 0 27 32" fill="none" xmlns="http://www.w3.org/2000/svg">
<g id="sustainSlider">
<path id="Ellipse 3" d="M20.25 30.1913C22.8237 28.7054 24.8351 26.4118 25.9724 23.6662C27.1096 20.9206 27.3092 17.8765 26.54 15.0059C25.7708 12.1354 24.076 9.59885 21.7183 7.78973C19.3606 5.98061 16.4718 5 13.5 5C10.5282 5 7.63942 5.98061 5.28172 7.78973C2.92402 9.59886 1.22916 12.1354 0.460001 15.0059C-0.30916 17.8765 -0.109637 20.9206 1.02763 23.6662C2.16489 26.4118 4.17634 28.7054 6.75 30.1913L13.5 18.5L20.25 30.1913Z" fill="#AC6675"/>
<path id="Ellipse 4" d="M18.75 27.5933C20.7517 26.4376 22.3162 24.6536 23.2007 22.5182C24.0853 20.3827 24.2405 18.0151 23.6422 15.7824C23.044 13.5497 21.7258 11.5769 19.892 10.1698C18.0582 8.76269 15.8114 8 13.5 8C11.1886 8 8.94177 8.76269 7.108 10.1698C5.27424 11.5769 3.95602 13.5498 3.35778 15.7824C2.75954 18.0151 2.91473 20.3827 3.79927 22.5182C4.6838 24.6536 6.24826 26.4376 8.25 27.5933L13.5 18.5L18.75 27.5933Z" fill="#DA8497"/>
<rect id="Rectangle 4" x="11.5" y="0.5" width="4" height="12" rx="2" fill="#DA8497" stroke="#AC6675"/>
</g>
</svg>
